<?xml version="1.0" encoding="UTF-8"?><svg id="Layer_1" xmlns="http://www.w3.org/2000/svg" viewBox="0 0 350.34 240.15"><defs><style>.cls-1,.cls-2{fill:#003867;}.cls-3{fill:#e5b900;}.cls-2{fill-rule:evenodd;}</style></defs><polygon class="cls-3" points="73.13 0 186.04 0 186.04 112.91 73.13 112.91 148.62 112.9 148.62 37.42 73.13 37.42 73.13 0 73.13 0"/><polygon class="cls-1" points="0 37.42 73.13 37.42 73.13 112.9 148.62 112.9 148.62 186.04 0 186.04 0 37.42 0 37.42"/><path class="cls-1" d="M167.75,136.44h18.3v35.79c3.6-3.1,7.23-5.42,10.87-6.95,3.65-1.57,7.34-2.36,11.07-2.36,7.29,0,13.44,2.52,18.43,7.56,4.28,4.37,6.42,10.79,6.42,19.25v48.55h-18.16v-32.21c0-8.51-.4-14.27-1.22-17.29-.81-3.01-2.21-5.27-4.19-6.75-1.93-1.49-4.34-2.23-7.23-2.23-3.74,0-6.95,1.24-9.65,3.71-2.66,2.48-4.51,5.85-5.54,10.13-.54,2.21-.81,7.25-.81,15.13v29.51h-18.3v-101.83h0Z"/><path class="cls-1" d="M318.64,179.65l-15.33,8.44c-2.89-3.02-5.74-5.11-8.58-6.28-2.79-1.17-6.08-1.76-9.86-1.76-6.89,0-12.47,2.07-16.75,6.21-4.23,4.1-6.35,9.36-6.35,15.8s2.05,11.37,6.14,15.33c4.1,3.96,9.47,5.94,16.14,5.94,8.24,0,14.65-2.82,19.25-8.44l14.51,9.92c-7.87,10.22-18.99,15.32-33.35,15.33-12.92,0-23.05-3.82-30.39-11.48-7.29-7.65-10.94-16.61-10.94-26.87,0-7.11,1.78-13.66,5.34-19.65,3.55-5.99,8.5-10.69,14.85-14.11,6.39-3.42,13.53-5.13,21.4-5.13,7.3,0,13.84,1.46,19.65,4.39,5.81,2.88,10.55,7,14.25,12.36h0Z"/><path class="cls-2" d="M338.52,134.54c3.24,0,6.01,1.17,8.3,3.51,2.34,2.34,3.51,5.18,3.51,8.51,0,3.29-1.15,6.1-3.44,8.44-2.3,2.29-5.04,3.44-8.24,3.44s-6.1-1.17-8.44-3.51c-2.3-2.39-3.44-5.26-3.44-8.64s1.14-6.01,3.44-8.3c2.29-2.29,5.06-3.44,8.3-3.44h0Zm-9.25,30.25h18.5v73.47h-18.5v-73.47h0Z"/></svg>